<svg width="64" height="88" viewBox="0 17 64 72" xmlns="http://www.w3.org/2000/svg" version="1.1"
  xmlns:xlink="http://www.w3.org/1999/xlink">
  <path fill="#0170ba"
    d="M0 17.363c21.392 -0.002 42.783 -0.004 64.175 0 -1.177 13.305 -2.336 26.609 -3.562 39.91 -0.729 8.501 -1.48 17.002 -2.272 25.497 -4.565 1.209 -9.085 2.588 -13.648 3.803 -4.191 1.23 -8.417 2.343 -12.61 3.564h-0.124c-3.99 -1.187 -8.02 -2.231 -12.011 -3.418 -4.71 -1.269 -9.378 -2.685 -14.089 -3.949 -0.614 -6.368 -1.168 -12.739 -1.715 -19.111 -1.031 -11.772 -2.152 -23.537 -3.143 -35.311C0.657 24.804 0.411 21.25 0 17.714zm32.188 5.249c-0.045 2.556 0.034 5.113 -0.045 7.667 -7.339 -0.026 -14.679 -0.006 -22.018 0.002 0.126 2.481 0.458 4.944 0.8 7.404 6.828 0.253 13.665 -0.009 20.493 0.195 -5.973 2.68 -12.02 5.203 -18.02 7.827 -0.515 0.229 -1.065 0.402 -1.525 0.736 0.051 2.725 0.49 5.435 0.684 8.154 3.639 -0.013 7.277 -0.071 10.916 -0.077 2.916 -0.015 5.834 0.043 8.751 -0.021 -0.139 4.481 0.043 8.967 -0.094 13.447 -1.962 -0.291 -3.9 -0.729 -5.855 -1.076 -1.542 -0.336 -3.121 -0.511 -4.64 -0.952 -0.216 -2.15 -0.366 -4.308 -0.558 -6.46 -0.439 -0.135 -0.905 -0.122 -1.359 -0.13 -2.205 0.013 -4.411 -0.007 -6.618 0.026 0.216 4.137 0.588 8.268 1.221 12.365 2.174 0.567 4.353 1.123 6.524 1.715 3.326 0.905 6.693 1.658 10.024 2.548 0.396 0.084 0.796 0.231 1.207 0.197 0.222 2.721 0.051 5.459 0.092 8.187 0.768 -0.124 1.523 -0.314 2.265 -0.543 6.306 -1.713 12.604 -3.457 18.906 -5.187 0.314 -2.479 0.46 -4.974 0.708 -7.459 0.655 -7.553 1.316 -15.105 2.004 -22.656 0.806 -8.638 1.502 -17.285 2.314 -25.924 -8.726 0.007 -17.451 -0.017 -26.175 0.011" />
  <g fill="#29a9df">
    <path
      d="M32.188 22.611c8.724 -0.028 17.449 -0.004 26.175 -0.011 -0.811 8.638 -1.508 17.285 -2.314 25.924 -0.687 7.551 -1.348 15.103 -2.004 22.656 -0.248 2.484 -0.394 4.98 -0.708 7.459 -6.302 1.73 -12.6 3.474 -18.906 5.187 -0.742 0.229 -1.497 0.419 -2.265 0.543 -0.041 -2.729 0.13 -5.466 -0.092 -8.187l0.227 -0.045c5.865 -1.472 11.69 -3.093 17.541 -4.618 0.74 -8.3 1.561 -16.596 2.081 -24.913 -4.976 0.026 -9.954 0.011 -14.931 0.032 -0.725 0.004 -1.45 0 -2.171 -0.053 2.678 -1.378 5.494 -2.471 8.244 -3.701 2.638 -1.196 5.309 -2.317 7.956 -3.491 0.511 -0.235 1.055 -0.43 1.504 -0.779 0.177 -0.648 0.167 -1.326 0.237 -1.989 0.152 -2.103 0.422 -4.195 0.524 -6.3 -7.047 -0.056 -14.095 -0.007 -21.145 -0.045 0.079 -2.554 0 -5.111 0.045 -7.667" />
    <path
      d="M32.224 54.499c3.403 -0.058 6.807 0.034 10.212 0.011 -0.19 3.48 -0.479 6.954 -0.659 10.433 -2.086 0.682 -4.204 1.258 -6.308 1.889 -1.121 0.342 -2.272 0.612 -3.339 1.114 0.137 -4.481 -0.045 -8.967 0.094 -13.447" />
  </g>
  <path
    d="M10.125 30.28c7.339 -0.007 14.679 -0.028 22.018 -0.002 0.096 8.075 -0.025 16.149 0.081 24.22 -2.916 0.064 -5.834 0.006 -8.751 0.021 -3.639 0.006 -7.277 0.064 -10.916 0.077 -0.193 -2.719 -0.633 -5.429 -0.684 -8.154 0.46 -0.334 1.01 -0.507 1.525 -0.736 6 -2.623 12.046 -5.147 18.02 -7.827 -6.828 -0.205 -13.665 0.058 -20.493 -0.195 -0.342 -2.46 -0.674 -4.924 -0.8 -7.404M13.099 59.355c2.206 -0.034 4.413 -0.013 6.618 -0.026 0.454 0.007 0.92 -0.006 1.359 0.13 0.191 2.152 0.342 4.31 0.558 6.46 1.519 0.441 3.098 0.616 4.64 0.952 1.955 0.347 3.893 0.785 5.855 1.076 0.188 2.727 -0.141 5.472 0.173 8.189l-0.227 0.045c-0.411 0.034 -0.811 -0.113 -1.207 -0.197 -3.331 -0.89 -6.698 -1.643 -10.024 -2.548 -2.171 -0.591 -4.349 -1.147 -6.524 -1.715 -0.633 -4.098 -1.005 -8.229 -1.221 -12.365"
    fill="#cfcfcf" />
  <path fill="#fff"
    d="M32.143 30.278c7.049 0.038 14.097 -0.011 21.145 0.045 -0.101 2.105 -0.372 4.197 -0.524 6.3 -0.069 0.663 -0.06 1.341 -0.237 1.989 -0.449 0.349 -0.993 0.545 -1.504 0.779 -2.648 1.174 -5.318 2.295 -7.956 3.491 -2.749 1.23 -5.566 2.323 -8.244 3.701 0.721 0.053 1.446 0.056 2.171 0.053 4.976 -0.021 9.954 -0.006 14.931 -0.032 -0.52 8.317 -1.341 16.613 -2.081 24.913 -5.851 1.525 -11.676 3.145 -17.541 4.618 -0.314 -2.717 0.015 -5.463 -0.173 -8.189 1.067 -0.501 2.218 -0.772 3.339 -1.114 2.103 -0.631 4.221 -1.207 6.308 -1.889 0.18 -3.48 0.469 -6.954 0.659 -10.433 -3.404 0.022 -6.809 -0.069 -10.212 -0.011 -0.105 -8.071 0.015 -16.146 -0.081 -24.22" />
</svg>